<?xml version="1.0" encoding="UTF-8"?>
<svg width="144px" height="144px" viewBox="0 0 144 144" version="1.1" xmlns="http://www.w3.org/2000/svg" xmlns:xlink="http://www.w3.org/1999/xlink">
    <!-- Generator: Sketch 43.2 (39069) - http://www.bohemiancoding.com/sketch -->
    <title>logo</title>
    <desc>Created with Sketch.</desc>
    <defs></defs>
    <g id="Page-1" stroke="none" stroke-width="1" fill="none" fill-rule="evenodd">
        <g id="logo" stroke="#000000" stroke-width="2">
            <circle id="Oval" fill="#B8E986" cx="22" cy="22" r="20"></circle>
            <circle id="Oval" fill="#9B9B9B" cx="72" cy="22" r="20"></circle>
            <circle id="Oval" fill="#BD0FE1" cx="122" cy="22" r="20"></circle>
            <circle id="Oval" fill="#9B9B9B" cx="22" cy="65" r="20"></circle>
            <circle id="Oval" fill="#F6A623" cx="72" cy="65" r="20"></circle>
            <circle id="Oval" fill="#9B9B9B" cx="122" cy="65" r="20"></circle>
            <path d="M2,116 L2,87.875 C11.6709509,76.8993354 24.3524794,71.4115854 40.0449658,71.4115854 C45.519089,71.4115854 51.2440236,72.1890166 57.2199413,73.7439024 C63.1958591,75.2987883 71.7946653,78.4999758 83.0166178,83.347561 C89.3118594,86.0914771 94.0332198,87.8521303 97.1808407,88.6295732 C100.328461,89.4070161 103.498844,89.7957317 106.692082,89.7957317 C112.622382,89.7957317 118.75787,88.012213 125.098729,84.445122 C131.439589,80.8780309 137.073289,76.3963684 142,71 L142,100.085366 C136.160935,105.573198 130.253533,109.551817 124.277615,112.021341 C118.301697,114.490866 111.573188,115.72561 104.091887,115.72561 C98.6177634,115.72561 93.4174244,115.108238 88.4907136,113.873476 C83.5640027,112.638713 75.6722602,109.597585 64.8152493,104.75 C53.9582383,99.8109509 44.9260706,97.3414634 37.7184751,97.3414634 C31.8794104,97.3414634 26.3825608,98.5990728 21.2277615,101.114329 C16.0729622,103.629586 9.66377243,108.591426 2,116 Z" id="≈" fill="#50E3C2"></path>
            <g id="Group" transform="translate(2.000000, 102.000000)">
                <circle id="Oval" fill="#B8E986" cx="20" cy="20" r="20"></circle>
                <circle id="Oval" fill="#F6A623" cx="70" cy="20" r="20"></circle>
                <circle id="Oval" fill="#BD0FE1" cx="120" cy="20" r="20"></circle>
            </g>
        </g>
    </g>
</svg>